HIERARCHY
ROOT Hips
{
	OFFSET 0.000000 89.005402 0.000000
	CHANNELS 6 Xposition Yposition Zposition Xrotation Yrotation Zrotation
	JOINT Spine
	{
		OFFSET 0.116900 10.681000 0.373400
		CHANNELS 3 Xrotation Yrotation Zrotation
		JOINT Spine1
		{
			OFFSET 0.000000 13.840401 0.053500
			CHANNELS 3 Xrotation Yrotation Zrotation
			JOINT Spine2
			{
				OFFSET 0.000000 14.712700 -0.366200
				CHANNELS 3 Xrotation Yrotation Zrotation
				JOINT Neck
				{
					OFFSET 0.000000 35.415497 -3.314200
					CHANNELS 3 Xrotation Yrotation Zrotation
					JOINT Head
					{
						OFFSET 0.000000 16.899200 1.218300
						CHANNELS 3 Xrotation Yrotation Zrotation
						JOINT HeadTop_End
						{
							OFFSET 0.000000 22.206207 2.192500
							CHANNELS 3 Xrotation Yrotation Zrotation
							End Site
							{
								OFFSET 0.000000 22.314178 0.000000
							}
						}
					}
				}
				JOINT LeftShoulder
				{
					OFFSET 12.896400 26.716293 -4.548400
					CHANNELS 3 Xrotation Yrotation Zrotation
					JOINT LeftArm
					{
						OFFSET 19.027000 -4.857010 -1.718400
						CHANNELS 3 Xrotation Yrotation Zrotation
						JOINT LeftForeArm
						{
							OFFSET 24.179897 0.000000 0.000000
							CHANNELS 3 Xrotation Yrotation Zrotation
							JOINT LeftHand
							{
								OFFSET 27.156403 0.000000 0.000000
								CHANNELS 3 Xrotation Yrotation Zrotation
								JOINT LeftHandIndex1
								{
									OFFSET 16.441200 0.000000 0.000000
									CHANNELS 3 Xrotation Yrotation Zrotation
									JOINT LeftHandIndex2
									{
										OFFSET 4.821899 0.000000 0.000000
										CHANNELS 3 Xrotation Yrotation Zrotation
										JOINT LeftHandIndex3
										{
											OFFSET 6.386497 0.000000 0.000000
											CHANNELS 3 Xrotation Yrotation Zrotation
											JOINT LeftHandIndex4
											{
												OFFSET 5.188988 0.000000 0.000000
												CHANNELS 3 Xrotation Yrotation Zrotation
												End Site
												{
													OFFSET -0.178703 5.185913 0.000177
												}
											}
										}
									}
								}
								JOINT LeftHandThumb1
								{
									OFFSET 6.534897 -5.032593 5.900300
									CHANNELS 3 Xrotation Yrotation Zrotation
									JOINT LeftHandThumb2
									{
										OFFSET 3.818176 -2.204422 2.204423
										CHANNELS 3 Xrotation Yrotation Zrotation
										JOINT LeftHandThumb3
										{
											OFFSET 3.252098 -1.877594 1.877601
											CHANNELS 3 Xrotation Yrotation Zrotation
											JOINT LeftHandThumb4
											{
												OFFSET 5.251778 -3.032120 3.032117
												CHANNELS 3 Xrotation Yrotation Zrotation
												End Site
												{
													OFFSET 0.000023 6.780014 0.000000
												}
											}
										}
									}
								}
							}
						}
					}
				}
				JOINT RightShoulder
				{
					OFFSET -12.896300 26.716293 -4.548400
					CHANNELS 3 Xrotation Yrotation Zrotation
					JOINT RightArm
					{
						OFFSET -19.027000 -4.857010 -1.718400
						CHANNELS 3 Xrotation Yrotation Zrotation
						JOINT RightForeArm
						{
							OFFSET -24.179897 0.000000 0.000000
							CHANNELS 3 Xrotation Yrotation Zrotation
							JOINT RightHand
							{
								OFFSET -27.156403 0.000000 0.000000
								CHANNELS 3 Xrotation Yrotation Zrotation
								JOINT RightHandThumb1
								{
									OFFSET -6.591202 -4.852203 5.988100
									CHANNELS 3 Xrotation Yrotation Zrotation
									JOINT RightHandThumb2
									{
										OFFSET -3.818176 -2.204422 2.204423
										CHANNELS 3 Xrotation Yrotation Zrotation
										JOINT RightHandThumb3
										{
											OFFSET -3.252098 -1.877594 1.877601
											CHANNELS 3 Xrotation Yrotation Zrotation
											JOINT RightHandThumb4
											{
												OFFSET -5.251778 -3.032120 3.032117
												CHANNELS 3 Xrotation Yrotation Zrotation
												End Site
												{
													OFFSET -0.000023 6.780014 0.000000
												}
											}
										}
									}
								}
								JOINT RightHandIndex1
								{
									OFFSET -16.029404 0.000000 0.000000
									CHANNELS 3 Xrotation Yrotation Zrotation
									JOINT RightHandIndex2
									{
										OFFSET -5.213303 0.000000 0.000000
										CHANNELS 3 Xrotation Yrotation Zrotation
										JOINT RightHandIndex3
										{
											OFFSET -6.386528 0.000000 0.000000
											CHANNELS 3 Xrotation Yrotation Zrotation
											JOINT RightHandIndex4
											{
												OFFSET -5.189026 0.000000 0.000000
												CHANNELS 3 Xrotation Yrotation Zrotation
												End Site
												{
													OFFSET 0.236702 5.183624 0.001972
												}
											}
										}
									}
								}
							}
						}
					}
				}
			}
		}
	}
	JOINT LeftUpLeg
	{
		OFFSET 14.073000 -7.904099 -1.463000
		CHANNELS 3 Xrotation Yrotation Zrotation
		JOINT LeftLeg
		{
			OFFSET -0.109806 -34.073280 4.093200
			CHANNELS 3 Xrotation Yrotation Zrotation
			JOINT LeftFoot
			{
				OFFSET 0.109806 -29.899420 -6.319000
				CHANNELS 3 Xrotation Yrotation Zrotation
				JOINT LeftToeBase
				{
					OFFSET 1.551100 -14.988700 20.535801
					CHANNELS 3 Xrotation Yrotation Zrotation
					JOINT LeftToe_End
					{
						OFFSET 0.221200 0.570800 13.248301
						CHANNELS 3 Xrotation Yrotation Zrotation
						End Site
						{
							OFFSET 0.000000 13.262435 0.000000
						}
					}
				}
			}
		}
	}
	JOINT RightUpLeg
	{
		OFFSET -13.839300 -7.904099 -1.463000
		CHANNELS 3 Xrotation Yrotation Zrotation
		JOINT RightLeg
		{
			OFFSET 0.109694 -34.073219 4.093300
			CHANNELS 3 Xrotation Yrotation Zrotation
			JOINT RightFoot
			{
				OFFSET -0.109694 -29.899384 -6.319200
				CHANNELS 3 Xrotation Yrotation Zrotation
				JOINT RightToeBase
				{
					OFFSET -1.551100 -14.988700 20.535801
					CHANNELS 3 Xrotation Yrotation Zrotation
					JOINT RightToe_End
					{
						OFFSET -0.221200 0.570900 13.248299
						CHANNELS 3 Xrotation Yrotation Zrotation
						End Site
						{
							OFFSET 0.000000 13.262440 0.000000
						}
					}
				}
			}
		}
	}
}
MOTION
Frames: 7
Frame Time: 0.033333
8.026835 79.948357 7.028817 7.898313 -54.727253 1.899426 2.694618 1.775841 -0.205913 15.653098 0.113929 -1.775503 15.661187 0.130993 -1.701601 -8.236534 5.710658 0.745645 -23.169667 32.772754 -11.595590 0.000000 -0.000000 -0.000000 0.760271 -0.825733 -9.656338 -39.889828 18.090364 -43.626614 -0.000025 -104.170637 -0.000014 -10.125573 -1.951228 -10.550801 0.221239 1.734740 -14.534395 0.221219 1.734744 -14.534398 0.055513 0.874386 -7.265529 -0.000001 -0.000000 0.000001 -1.540031 3.690195 6.142366 5.373050 26.501168 2.026929 0.239411 10.829224 3.418044 0.000003 0.000001 0.000001 0.607341 5.332844 8.055015 -26.805106 38.717665 57.714108 0.000065 104.943220 -0.000077 -13.588369 16.130255 -5.313194 -1.849247 -3.581801 -6.586140 6.006317 -24.368602 -1.227805 -0.568718 -7.708674 -2.915334 -0.000001 0.000001 0.000004 0.105464 -1.208903 9.971596 0.105481 -1.208906 9.971586 0.026402 -0.606750 4.985250 -0.000000 -0.000001 0.000000 -36.986359 8.246333 26.080864 39.912337 -10.811093 -2.852906 -10.253978 -1.236718 -8.836432 -0.186341 -0.000010 0.000000 0.000000 0.000002 0.000000 -22.539524 -7.671576 -15.459115 31.879396 -2.630612 -0.716391 -11.465752 -3.065493 18.049166 -0.176743 0.000015 0.000003 -0.000000 0.000000 0.000000 
7.864497 80.172409 6.820572 8.440224 -54.810929 2.842494 2.276656 1.330102 0.548647 15.769645 0.106016 -1.618454 15.776765 0.096610 -1.549418 -8.129511 5.648342 0.477178 -21.464768 32.144059 -12.753817 0.000001 -0.000000 0.000000 0.760701 -0.716624 -9.849450 -38.446930 18.577225 -44.499434 0.000047 -104.330661 0.000045 -10.260244 -1.623568 -11.186170 0.221244 1.734731 -14.534398 0.221221 1.734731 -14.534402 0.055496 0.874395 -7.265525 0.000002 -0.000003 0.000000 -1.540033 3.690196 6.142365 5.373054 26.501166 2.026926 0.239419 10.829227 3.418044 0.000003 0.000001 -0.000000 0.609154 5.262835 7.920860 -25.397203 38.786479 57.188651 0.000051 105.337295 -0.000072 -13.822556 16.129599 -4.737756 -1.849249 -3.581800 -6.586140 6.006317 -24.368602 -1.227809 -0.568718 -7.708672 -2.915337 -0.000000 0.000000 0.000000 0.105453 -1.208901 9.971577 0.105478 -1.208901 9.971598 0.026425 -0.606754 4.985220 -0.000000 -0.000002 -0.000000 -36.247694 8.117816 25.236793 38.545578 -10.225360 -2.421828 -9.678370 -0.905860 -9.600428 -0.061956 0.000000 -0.000002 0.000000 -0.000000 0.000000 -22.833210 -7.541708 -15.662563 31.443783 -2.009415 -0.837465 -11.266004 -2.976189 17.786905 -0.163199 -0.000016 0.000002 -0.000000 -0.000001 0.000000 
7.702631 80.363289 6.525130 9.308122 -54.930345 4.046087 1.888056 0.925749 1.263754 15.935217 0.105111 -1.453765 15.941561 0.070364 -1.388120 -8.198872 5.601381 0.187566 -20.007970 31.498800 -13.827163 0.000001 -0.000000 0.000001 0.762146 -0.583957 -10.104664 -37.222728 18.921468 -45.320788 0.000104 -104.585516 0.000092 -10.488376 -1.117585 -11.971028 0.221227 1.734732 -14.534398 0.221232 1.734731 -14.534405 0.055538 0.874391 -7.265523 0.000001 -0.000001 0.000001 -1.540035 3.690196 6.142365 5.373055 26.501165 2.026931 0.239411 10.829226 3.418047 -0.000001 0.000002 -0.000000 0.609854 5.164585 7.813198 -24.138498 38.848859 56.600336 0.000121 105.735249 -0.000123 -14.128522 16.335483 -3.953705 -1.849250 -3.581802 -6.586140 6.006316 -24.368597 -1.227808 -0.568719 -7.708672 -2.915335 -0.000000 0.000001 0.000002 0.105468 -1.208910 9.971592 0.105472 -1.208898 9.971587 0.026414 -0.606747 4.985219 0.000000 -0.000002 0.000001 -35.754558 7.980942 24.533304 37.173967 -9.474406 -2.079563 -9.000728 -0.612234 -10.377123 -0.166195 0.000002 -0.000001 -0.000000 -0.000003 -0.000000 -23.442370 -7.281268 -15.743446 31.172536 -1.403962 -0.984603 -11.046130 -2.937507 17.469686 -0.265497 -0.000006 0.000001 -0.000000 0.000000 0.000000 
7.619041 80.474129 6.122632 10.727587 -55.150564 5.730444 1.531296 0.591692 1.928830 16.125880 0.102022 -1.367770 16.131561 0.044424 -1.303270 -8.455889 5.558303 -0.038428 -18.932349 30.900182 -14.747794 -0.000000 -0.000001 0.000000 0.762625 -0.439434 -10.309482 -36.210009 19.177240 -46.115764 -0.000027 -104.927429 -0.000021 -10.756402 -0.412281 -12.833177 0.221232 1.734729 -14.534405 0.221209 1.734736 -14.534400 0.055491 0.874392 -7.265528 -0.000000 0.000000 -0.000000 -1.540031 3.690195 6.142361 5.373052 26.501163 2.026929 0.239417 10.829225 3.418043 -0.000002 -0.000002 0.000001 0.612335 5.134267 7.624888 -23.073497 38.764722 56.126827 0.000154 106.143407 -0.000179 -14.464688 16.716024 -3.171510 -1.849249 -3.581800 -6.586139 6.006317 -24.368602 -1.227809 -0.568719 -7.708673 -2.915335 -0.000000 -0.000001 -0.000000 0.105466 -1.208905 9.971598 0.105447 -1.208890 9.971589 0.026408 -0.606765 4.985234 0.000001 -0.000000 -0.000000 -35.709954 7.792939 23.954990 35.901438 -8.673504 -1.855702 -8.233552 -0.316639 -11.117195 -0.163962 0.000009 -0.000000 -0.000000 0.000000 0.000000 -24.687461 -6.868508 -15.818452 31.175797 -0.701893 -1.074351 -10.708815 -2.856901 17.046375 -0.366913 -0.000010 -0.000001 0.000000 -0.000000 0.000000 
7.657419 80.449577 5.634831 13.067369 -55.471726 8.290025 1.129244 0.328448 2.403630 16.428435 0.086362 -1.367978 16.433551 0.011686 -1.304156 -9.205835 5.547352 -0.175460 -18.348156 30.406660 -15.442984 0.000000 -0.000001 -0.000001 0.750822 -0.072157 -10.439911 -35.396602 19.006571 -47.010573 0.000051 -105.319297 0.000051 -11.215075 0.476123 -13.397862 0.221228 1.734737 -14.534397 0.221192 1.734738 -14.534402 0.055523 0.874388 -7.265528 -0.000001 -0.000002 -0.000000 -1.540037 3.690195 6.142366 5.373051 26.501165 2.026928 0.239414 10.829222 3.418047 -0.000002 0.000002 0.000000 0.615609 4.900099 7.225690 -22.643810 38.748486 56.195139 0.000170 106.591283 -0.000158 -14.820559 16.974374 -2.396359 -1.849249 -3.581799 -6.586139 6.006318 -24.368602 -1.227803 -0.568718 -7.708672 -2.915339 -0.000000 0.000001 -0.000000 0.105463 -1.208902 9.971587 0.105457 -1.208911 9.971597 0.026414 -0.606744 4.985227 -0.000000 0.000000 -0.000000 -36.333178 7.493142 23.425379 34.889672 -7.623333 -1.808962 -7.432538 -0.019613 -11.797048 -0.055692 -0.000005 -0.000004 0.000000 -0.000003 -0.000000 -26.961566 -6.208427 -16.007556 31.881503 -0.013579 -1.118718 -10.731931 -2.751635 16.578076 -0.429017 -0.000010 0.000002 0.000000 -0.000000 0.000000 
7.809125 80.242180 5.006885 16.596593 -55.917734 11.903490 0.738233 0.184617 2.615517 16.692870 0.061004 -1.428191 16.697629 -0.020600 -1.365558 -10.385694 5.549699 -0.204055 -18.558034 30.051873 -15.729318 -0.000001 -0.000001 0.000000 0.728207 0.499918 -10.446148 -34.697074 18.356915 -48.007610 0.000002 -105.567431 -0.000011 -11.807939 1.676065 -13.942335 0.221242 1.734733 -14.534398 0.221221 1.734734 -14.534397 0.055492 0.874389 -7.265530 -0.000001 0.000001 -0.000000 -1.540033 3.690195 6.142372 5.373052 26.501166 2.026923 0.239416 10.829227 3.418047 -0.000000 -0.000002 0.000004 0.615615 4.609883 6.837146 -22.597773 38.934189 56.550036 0.000098 107.037725 -0.000114 -15.304919 16.965177 -2.030582 -1.849249 -3.581801 -6.586138 6.006318 -24.368602 -1.227807 -0.568718 -7.708673 -2.915337 -0.000000 -0.000001 0.000001 0.105446 -1.208904 9.971601 0.105469 -1.208907 9.971597 0.026409 -0.606758 4.985245 -0.000000 0.000001 0.000001 -37.839238 7.096600 23.172515 34.344237 -6.188507 -1.989593 -6.657242 0.286524 -12.449945 -0.000003 0.000000 0.000001 0.000000 0.000000 -0.000000 -30.425037 -5.220748 -16.122148 33.204855 0.871496 -1.105205 -10.867240 -2.619525 15.959970 -0.495591 -0.000002 0.000001 -0.000000 0.000002 0.000000 
7.972261 79.811096 4.192677 21.495071 -56.317864 16.564384 0.440976 0.073704 2.707939 16.089173 -0.003508 -1.690266 16.093333 -0.082110 -1.636515 -10.598218 5.359527 0.364817 -19.873337 30.115424 -15.482999 0.000000 0.000001 0.000000 0.699417 0.384221 -9.394494 -32.942641 18.762123 -49.405337 0.000038 -105.208259 0.000038 -12.026454 3.145263 -14.875752 0.221217 1.734739 -14.534407 0.221239 1.734739 -14.534402 0.055518 0.874393 -7.265523 -0.000001 0.000001 -0.000000 -1.540035 3.690196 6.142368 5.373048 26.501165 2.026931 0.239416 10.829223 3.418049 0.000001 0.000001 0.000001 0.625403 5.399561 7.027807 -21.257695 38.436172 56.212242 -0.000047 107.153162 0.000054 -15.691777 16.424395 -2.740179 -1.849248 -3.581801 -6.586137 6.006318 -24.368602 -1.227804 -0.568717 -7.708673 -2.915337 0.000001 0.000000 0.000001 0.105471 -1.208904 9.971590 0.105482 -1.208918 9.971579 0.026403 -0.606744 4.985235 -0.000000 -0.000001 -0.000000 -40.451526 6.611063 23.576292 34.323200 -5.103006 -2.470576 -6.000438 0.602926 -13.039576 -0.000032 -0.000017 0.000001 -0.000000 -0.000000 0.000000 -34.935181 -3.744676 -15.673992 34.981237 1.745451 -1.233805 -10.998828 -2.491449 15.316686 -0.548228 0.000000 -0.000001 -0.000000 0.000000 0.000000 
